<?xml version="1.0" standalone="no"?>
<!DOCTYPE svg PUBLIC "-//W3C//DTD SVG 20010904//EN"
 "http://www.w3.org/TR/2001/REC-SVG-20010904/DTD/svg10.dtd">
<svg version="1.0" xmlns="http://www.w3.org/2000/svg"
 width="474.000000pt" height="474.000000pt" viewBox="0 0 474.000000 474.000000"
 preserveAspectRatio="xMidYMid meet">

<g transform="translate(0.000000,474.000000) scale(0.100000,-0.100000)"
fill="#000000" stroke="none">
<path d="M2303 4088 c-2 -5 -28 -8 -56 -8 -29 -1 -70 -5 -92 -10 -151 -32
-191 -42 -200 -49 -5 -5 -23 -11 -39 -15 -56 -14 -243 -111 -321 -169 -67 -48
-254 -217 -241 -217 2 0 -10 -15 -27 -33 -63 -66 -98 -119 -167 -252 -57 -111
-112 -266 -131 -367 -10 -55 -12 -63 -23 -89 -4 -9 -5 -83 -3 -165 3 -141 24
-283 47 -326 6 -10 10 -24 10 -31 0 -64 145 -374 187 -400 7 -4 13 -14 13 -22
0 -8 6 -18 14 -22 8 -4 15 -12 15 -18 2 -16 173 -205 186 -205 3 0 17 -11 31
-25 14 -14 45 -38 67 -52 23 -14 44 -29 47 -33 3 -4 20 -15 39 -25 19 -9 52
-30 74 -46 22 -16 45 -29 50 -29 6 0 35 -12 65 -26 31 -15 60 -27 66 -28 6 -1
16 -5 23 -9 6 -4 18 -4 27 -1 9 3 16 1 16 -5 0 -6 11 -11 24 -11 14 0 27 -4
30 -9 6 -9 100 -26 129 -23 9 1 17 -2 17 -7 0 -5 21 -12 48 -15 88 -13 91 -19
17 -32 -38 -7 -101 -13 -140 -14 -133 -1 -447 -37 -545 -61 -95 -23 -170 -65
-170 -94 0 -71 301 -102 545 -55 125 24 233 57 353 107 l83 35 38 -25 c20 -14
66 -40 102 -57 63 -33 68 -52 8 -31 -26 9 -29 9 -20 -3 7 -8 8 -17 3 -20 -11
-6 -3 -104 10 -129 5 -10 6 -22 2 -25 -4 -4 -9 -1 -11 5 -5 15 -47 7 -78 -13
-26 -19 -55 -17 -77 3 -18 16 -21 16 -55 -2 -19 -11 -38 -25 -40 -33 -3 -7
-21 -23 -39 -36 -30 -20 -33 -25 -19 -36 13 -11 21 -9 46 9 27 20 34 21 60 11
16 -7 29 -16 29 -21 0 -15 31 -10 65 11 32 20 32 20 53 0 25 -24 43 -25 82 -5
17 9 30 11 30 6 0 -5 -9 -13 -20 -16 -11 -3 -20 -12 -20 -20 0 -7 -7 -16 -17
-19 -14 -6 -14 -8 3 -20 15 -11 16 -17 6 -29 -20 -23 1 -67 33 -67 14 0 25 -4
25 -8 0 -5 -125 -12 -277 -16 -153 -4 -282 -11 -286 -15 -21 -21 37 -26 315
-31 163 -3 299 -8 302 -11 4 -3 0 -11 -7 -17 -17 -15 -10 -72 9 -72 8 0 14 -4
14 -9 0 -15 -116 -21 -386 -21 l-264 0 0 79 0 79 -32 15 c-18 8 -65 26 -103
41 -114 42 -218 110 -308 199 -46 45 -92 97 -102 115 -31 52 -38 37 -9 -20 66
-131 242 -262 452 -338 l62 -23 0 -73 c0 -40 3 -79 6 -88 5 -14 51 -16 415
-16 l409 0 0 68 c0 105 0 104 107 146 136 54 226 110 315 197 81 79 130 163
141 241 7 43 14 42 -103 28 -112 -13 -306 -13 -400 0 -41 6 -113 22 -160 36
-88 27 -230 88 -230 100 0 8 275 -3 410 -17 159 -15 347 -43 448 -65 35 -7 18
13 -26 32 -92 40 -266 69 -497 84 -93 5 -205 15 -248 21 -42 5 -81 7 -86 4 -5
-3 -12 -1 -16 5 -4 6 4 10 18 10 17 0 24 5 23 16 0 9 5 18 12 20 7 1 8 0 2 -3
-22 -10 -9 -25 18 -19 15 3 68 14 117 24 50 10 97 21 105 24 8 4 36 11 63 17
77 18 303 125 311 148 3 7 12 13 19 13 8 0 25 10 39 23 14 12 40 33 59 47 19
13 40 29 47 35 30 22 139 133 168 170 18 22 43 54 57 70 60 73 184 322 203
407 3 18 11 39 15 48 31 53 63 446 39 475 -7 8 -10 18 -7 22 7 11 -32 203 -50
253 -8 20 -12 32 -16 50 -2 8 -13 37 -25 64 -12 27 -22 55 -22 62 0 8 -4 14
-8 14 -5 0 -16 17 -25 38 -56 126 -242 350 -373 448 -21 16 -45 35 -52 42 -13
12 -28 16 -47 12 -5 -1 -7 2 -3 5 11 12 -28 37 -142 92 -122 59 -171 77 -260
97 -36 8 -83 19 -105 25 -22 6 -67 11 -101 11 -33 0 -64 3 -67 7 -10 9 -138
10 -144 1z m140 -146 c44 -2 49 -5 58 -32 9 -24 17 -30 40 -30 16 0 29 3 29 8
0 4 7 15 14 25 13 17 17 17 82 1 106 -27 134 -41 134 -67 0 -13 5 -28 12 -35
17 -17 58 -15 79 4 16 14 22 13 76 -17 99 -55 113 -67 113 -102 0 -52 11 -60
68 -52 l50 7 43 -51 c24 -28 50 -51 57 -51 7 0 11 -4 8 -9 -4 -5 -1 -11 5 -13
9 -3 8 -14 -1 -41 -12 -32 -12 -38 5 -57 12 -13 31 -20 55 -20 32 0 38 -4 58
-42 11 -24 31 -60 44 -81 22 -37 22 -38 4 -71 -14 -27 -16 -38 -7 -54 6 -12
17 -19 24 -17 28 10 56 -31 78 -116 l23 -86 -29 -26 c-26 -22 -28 -28 -20 -53
7 -18 19 -30 33 -32 12 -2 20 -7 17 -12 -3 -5 -1 -11 5 -15 5 -3 10 -46 10
-96 0 -76 -3 -91 -17 -96 -29 -10 -53 -35 -53 -54 0 -10 12 -27 26 -38 24 -19
26 -25 19 -68 -4 -27 -10 -52 -15 -58 -4 -5 -10 -23 -14 -40 -9 -37 -24 -55
-44 -55 -21 0 -52 -30 -52 -50 0 -9 9 -25 19 -34 23 -21 21 -29 -32 -116 -45
-74 -51 -80 -90 -80 -46 0 -73 -40 -46 -67 18 -18 1 -49 -64 -112 -52 -52 -66
-60 -87 -55 -56 15 -97 -8 -84 -48 9 -28 -7 -46 -80 -88 -64 -38 -116 -51
-116 -31 0 16 -38 23 -60 11 -13 -7 -20 -21 -20 -40 0 -24 -6 -30 -37 -40 -21
-7 -48 -19 -61 -27 -13 -8 -48 -15 -79 -17 l-55 -2 7 41 c3 22 11 78 16 125 5
47 13 99 18 115 4 17 2 76 -5 135 -11 95 -18 141 -53 345 -6 33 -15 74 -20 91
-16 56 4 57 29 2 13 -29 38 -73 54 -98 17 -25 36 -52 41 -61 10 -16 39 -61
132 -201 25 -38 47 -68 48 -68 9 0 -200 403 -221 425 -12 14 -38 46 -55 72
-18 27 -37 51 -42 54 -17 12 -3 53 21 59 13 3 23 8 23 13 -2 21 1 26 19 32 19
6 55 -14 107 -58 12 -11 27 -16 34 -12 7 5 10 4 5 -3 -3 -6 8 -22 26 -36 37
-28 431 -229 422 -215 -3 5 -26 21 -52 36 -26 15 -61 37 -78 50 -17 13 -36 23
-43 23 -6 0 -14 7 -17 15 -4 8 -10 15 -16 15 -5 0 -24 11 -42 25 -18 14 -38
25 -44 25 -7 0 -12 5 -12 10 0 6 -10 15 -22 20 -13 6 -30 14 -38 20 -14 9 -66
32 -140 61 -19 7 -43 20 -52 28 -20 17 -24 46 -8 56 6 3 7 17 4 30 -4 16 0 26
13 33 17 10 17 11 1 17 -10 4 -18 15 -18 26 0 10 8 23 18 29 14 9 14 11 1 7
-20 -6 -39 11 -39 34 0 9 -7 19 -15 23 -8 3 -15 17 -15 31 0 18 -5 25 -20 25
-11 0 -24 8 -28 18 -4 10 -18 17 -32 17 -20 0 -25 5 -23 23 2 12 -2 22 -7 22
-6 0 -10 -6 -10 -14 0 -20 -48 -27 -55 -8 -3 8 -8 12 -12 8 -3 -3 2 -15 11
-25 17 -19 17 -20 -4 -31 -18 -10 -21 -17 -15 -51 4 -23 3 -39 -3 -39 -14 0
-19 19 -16 63 1 26 -3 40 -13 44 -12 5 -12 7 -1 15 9 7 7 8 -7 3 -11 -4 -29
-10 -40 -13 -11 -3 -26 -12 -33 -19 -7 -7 -22 -13 -33 -13 -11 0 -19 -6 -18
-12 3 -27 -2 -37 -22 -43 -14 -5 -18 -10 -10 -14 7 -4 9 -15 5 -25 -6 -15 -15
-17 -52 -12 -25 3 -50 10 -56 15 -23 19 -235 88 -276 89 -8 1 -49 8 -90 17
-41 9 -86 18 -100 20 -14 2 -49 10 -77 18 -29 8 -53 11 -53 7 0 -3 33 -14 73
-25 39 -10 77 -21 82 -25 6 -4 57 -21 115 -39 58 -18 114 -38 124 -43 11 -6
75 -19 144 -29 68 -10 128 -21 133 -25 5 -3 9 -14 9 -24 0 -25 -37 -35 -93
-25 -108 18 -172 22 -297 17 -97 -3 -140 -9 -152 -19 -9 -8 -18 -10 -21 -6 -3
5 -18 8 -34 7 -15 -1 -73 -3 -128 -4 -98 -3 -96 -3 55 -11 249 -13 458 -15
562 -5 88 7 98 7 104 -9 12 -30 -20 -47 -107 -56 -80 -8 -163 -25 -184 -38 -5
-3 -12 -6 -15 -6 -38 -6 -70 -19 -70 -30 0 -8 -7 -11 -20 -8 -19 5 -183 -41
-205 -58 -5 -4 -27 -10 -48 -14 -21 -4 -36 -10 -33 -12 2 -3 31 1 63 7 32 7
64 13 71 14 7 1 17 7 23 13 6 6 17 9 24 7 16 -6 260 43 283 57 32 18 215 78
224 73 4 -3 8 -18 8 -34 0 -22 5 -29 23 -32 14 -2 21 -9 21 -21 -1 -12 6 -17
23 -17 16 0 27 -7 30 -19 3 -12 11 -17 19 -14 21 8 54 -26 54 -56 0 -18 -3
-22 -9 -13 -6 10 -10 9 -14 -7 -3 -12 -1 -24 4 -27 5 -3 9 -16 9 -30 0 -15 -4
-23 -11 -19 -6 4 -8 13 -5 21 3 7 1 16 -4 19 -23 14 -119 -278 -107 -326 3
-10 1 -19 -4 -21 -13 -4 -31 -115 -23 -140 4 -12 2 -18 -4 -14 -16 9 -23 -23
-11 -47 8 -13 9 -47 6 -92 -4 -40 -2 -109 3 -155 5 -46 8 -86 6 -88 -5 -5
-153 26 -183 38 -15 6 -23 18 -23 34 0 27 -23 56 -45 56 -7 0 -21 -7 -30 -17
-16 -15 -20 -15 -68 2 -29 10 -55 24 -60 31 -4 7 -23 18 -41 24 -32 10 -34 14
-31 46 4 42 -26 80 -53 68 -48 -20 -57 -16 -125 53 -64 65 -79 94 -57 108 15
9 12 41 -5 55 -9 7 -29 13 -44 12 -36 -1 -60 24 -100 104 -36 71 -36 71 -15
91 8 9 14 27 12 42 -2 21 -12 29 -45 40 -36 13 -42 20 -48 50 -4 20 -10 41
-15 46 -4 6 -10 31 -13 57 -5 39 -3 49 12 60 10 7 21 23 25 36 6 18 0 29 -28
54 -35 31 -36 33 -36 109 0 91 5 108 35 119 13 5 26 21 30 37 5 23 2 31 -20
49 -30 24 -30 36 3 145 15 50 22 59 57 75 45 21 58 57 29 78 -21 16 -14 50 22
112 40 68 70 95 97 89 46 -12 66 30 42 87 -7 18 9 37 98 118 36 33 51 40 59
32 33 -33 94 5 83 51 -7 28 12 45 109 96 54 28 86 31 86 10 0 -13 54 -11 68 3
7 7 12 22 12 35 0 26 20 37 114 59 33 8 66 20 73 26 7 6 16 8 20 4 3 -3 1 -6
-6 -6 -7 0 1 -12 18 -26 37 -31 77 -27 91 11 11 30 27 33 173 27z m-19 -1267
c19 -87 51 -229 71 -315 50 -217 59 -292 59 -510 1 -230 -7 -287 -50 -364 -25
-44 -40 -62 -98 -115 -28 -24 -41 -30 -49 -22 -8 8 -8 11 1 11 7 0 12 4 12 10
0 5 -7 7 -15 4 -25 -10 -110 83 -135 146 -20 50 -22 68 -17 200 4 139 6 150
47 265 96 273 118 379 126 605 3 80 8 161 11 180 l6 35 8 -30 c4 -16 15 -61
23 -100z m86 -120 c0 -8 -2 -15 -4 -15 -2 0 -6 7 -10 15 -3 8 -1 15 4 15 6 0
10 -7 10 -15z m17 -127 c-3 -8 -6 -5 -6 6 -1 11 2 17 5 13 3 -3 4 -12 1 -19z
m-230 -140 c-3 -8 -6 -5 -6 6 -1 11 2 17 5 13 3 -3 4 -12 1 -19z m-77 -203 c0
-8 -2 -15 -4 -15 -2 0 -6 7 -10 15 -3 8 -1 15 4 15 6 0 10 -7 10 -15z m-10
-65 c0 -5 -5 -10 -11 -10 -5 0 -7 5 -4 10 3 6 8 10 11 10 2 0 4 -4 4 -10z
m-19 -57 c-8 -15 -10 -15 -11 -2 0 17 10 32 18 25 2 -3 -1 -13 -7 -23z m9
-519 c0 -8 -5 -12 -10 -9 -6 4 -8 11 -5 16 9 14 15 11 15 -7z m44 -63 c-5 -6
-34 20 -34 30 0 5 8 1 18 -8 10 -10 17 -20 16 -22z m21 -130 c-14 -14 -206
-77 -290 -96 -89 -20 -421 -33 -411 -16 4 6 16 11 27 11 10 0 19 5 19 10 0 6
-15 10 -32 10 -101 1 131 49 337 69 209 21 364 26 350 12z m305 -310 c0 -5
-10 -11 -22 -14 -22 -6 -22 -6 -4 8 23 17 26 18 26 6z m-195 -35 c18 -13 17
-15 -15 -35 -19 -11 -36 -16 -38 -11 -2 6 -13 10 -24 10 -18 0 -19 2 -7 16 12
14 43 31 60 33 3 1 14 -5 24 -13z m279 -1 c20 -15 20 -15 0 -30 -21 -16 -35
-17 -73 -6 -25 7 -25 7 10 29 40 26 39 25 63 7z m141 0 c19 -15 19 -16 -5 -33
-14 -9 -27 -17 -30 -16 -22 5 -50 18 -50 23 0 6 51 41 60 40 3 0 14 -6 25 -14z
m139 1 l27 -14 -29 -21 c-27 -19 -33 -19 -57 -7 l-26 14 27 21 c32 25 26 24
58 7z m144 -2 c15 -15 14 -18 -3 -30 -24 -18 -59 -18 -74 0 -10 12 -7 18 16
30 36 19 41 19 61 0z m-560 -3 c11 -6 7 -13 -14 -30 -29 -23 -44 -27 -44 -11
0 6 -7 10 -15 10 -20 0 -19 17 3 29 21 13 52 14 70 2z m692 6 c0 -10 -39 -47
-48 -47 -18 0 -24 20 -12 35 11 13 60 22 60 12z"/>
<path d="M2372 3665 c0 -16 2 -22 5 -12 2 9 2 23 0 30 -3 6 -5 -1 -5 -18z"/>
<path d="M2131 3624 c0 -11 3 -14 6 -6 3 7 2 16 -1 19 -3 4 -6 -2 -5 -13z"/>
<path d="M2617 3623 c-3 -4 -13 -42 -22 -83 -10 -41 -22 -81 -28 -87 -5 -7 -7
-20 -3 -28 3 -9 2 -13 -4 -10 -5 3 -14 -14 -20 -37 -6 -24 -15 -50 -20 -59 -5
-9 -12 -34 -15 -55 -4 -22 -13 -48 -20 -60 -7 -11 -16 -56 -20 -100 -4 -43 -9
-88 -12 -99 -3 -13 -2 -17 4 -10 20 21 86 210 85 243 -1 19 2 32 6 28 6 -7 19
48 37 157 3 16 7 33 10 38 4 5 8 28 11 51 3 24 9 58 14 77 9 33 7 51 -3 34z"/>
<path d="M2371 3583 c0 -31 2 -34 9 -18 12 28 12 55 0 55 -5 0 -10 -17 -9 -37z"/>
<path d="M2156 3535 c3 -33 9 -64 12 -70 4 -5 8 -21 8 -35 2 -46 4 -49 22 -44
13 5 14 4 3 -4 -10 -7 -11 -21 -6 -53 11 -70 35 -157 51 -186 7 -16 14 -34 14
-41 0 -7 5 -23 12 -35 7 -12 13 -31 15 -42 2 -11 8 -24 13 -29 14 -14 1 107
-20 194 -17 70 -54 188 -85 270 -7 19 -20 58 -29 85 l-16 50 6 -60z"/>
<path d="M2841 3523 c-10 -26 -10 -27 4 -9 8 11 15 23 15 28 0 15 -7 8 -19
-19z"/>
<path d="M2366 3464 c-14 -190 -5 -488 14 -453 7 13 32 179 31 204 0 6 -3 71
-7 145 -4 75 -12 146 -19 159 -11 22 -13 17 -19 -55z"/>
<path d="M1957 3433 c24 -48 48 -89 54 -91 5 -2 9 -11 9 -20 0 -21 99 -210
132 -252 59 -78 67 -86 68 -67 0 9 -5 17 -11 17 -6 0 -8 7 -5 15 8 23 -110
241 -136 253 -5 2 -8 8 -8 12 0 9 -58 99 -70 110 -3 3 -14 22 -25 43 -11 21
-27 45 -36 53 -9 8 3 -25 28 -73z"/>
<path d="M2774 3413 c-27 -43 -51 -80 -55 -83 -14 -11 -120 -181 -135 -216 -8
-20 -13 -43 -10 -51 4 -9 2 -11 -6 -7 -8 5 -9 2 -5 -10 4 -10 7 -20 7 -23 0
-2 17 17 37 44 36 47 226 413 219 420 -2 2 -26 -31 -52 -74z"/>
<path d="M1730 3365 c40 -48 43 -51 32 -30 -6 11 -21 29 -34 40 -22 19 -22 19
2 -10z"/>
<path d="M2859 3217 c-86 -78 -172 -160 -190 -182 -19 -22 -36 -42 -39 -45
-14 -14 -51 -72 -48 -75 1 -2 18 10 36 26 18 16 27 29 20 30 -7 0 3 5 22 12
19 7 39 22 45 35 5 12 13 22 18 22 4 0 5 -6 1 -12 -5 -9 -3 -9 9 1 9 7 14 18
10 24 -3 5 -2 7 4 4 8 -5 63 44 63 56 0 2 21 26 46 53 25 27 57 63 72 80 15
16 42 47 61 67 19 20 33 39 30 41 -2 3 -75 -59 -160 -137z"/>
<path d="M1780 3312 c0 -5 12 -20 28 -34 15 -14 42 -43 60 -64 134 -161 155
-182 254 -257 20 -16 39 -24 42 -18 3 5 3 11 -1 13 -5 1 -34 36 -67 76 -32 40
-73 84 -90 98 -63 53 -170 150 -190 172 -20 22 -36 29 -36 14z"/>
<path d="M1570 3181 c14 -11 29 -21 33 -21 5 0 23 -11 41 -25 18 -14 38 -25
44 -25 7 0 12 -4 12 -8 0 -5 15 -16 33 -25 35 -18 69 -39 77 -47 13 -13 79
-60 85 -60 3 0 15 -9 27 -20 12 -11 29 -20 38 -20 9 0 20 -3 24 -7 4 -5 11 -8
14 -9 4 0 36 -14 72 -31 36 -17 67 -28 70 -25 3 2 -1 7 -9 10 -7 2 -22 13 -31
22 -10 10 -21 16 -24 12 -3 -3 -6 -1 -6 5 0 24 -253 168 -278 158 -7 -2 -11
-1 -8 4 3 4 -7 14 -22 21 -15 7 -34 16 -42 21 -69 39 -170 86 -150 70z"/>
<path d="M2981 3084 c-101 -51 -191 -100 -201 -109 -9 -8 -21 -15 -26 -15 -5
0 -20 -12 -33 -25 -13 -14 -27 -25 -31 -25 -4 0 -23 -14 -41 -32 -19 -17 -29
-29 -24 -27 6 3 27 13 48 22 21 10 35 22 32 27 -3 6 -1 10 4 10 6 0 11 -4 11
-10 0 -8 30 4 80 32 8 4 22 11 30 15 27 12 165 107 168 115 2 4 10 8 17 8 8 0
20 6 27 13 7 7 33 25 58 39 54 32 89 58 75 56 -5 0 -93 -43 -194 -94z"/>
<path d="M2532 2995 c-17 -38 -14 -43 8 -15 21 27 25 40 12 40 -5 0 -14 -11
-20 -25z"/>
<path d="M2226 2981 c-3 -5 2 -15 12 -22 15 -12 16 -12 5 2 -7 9 -10 19 -6 22
3 4 4 7 0 7 -3 0 -8 -4 -11 -9z"/>
<path d="M3280 2960 c0 -13 11 -13 30 0 12 8 11 10 -7 10 -13 0 -23 -4 -23
-10z"/>
<path d="M3175 2939 c-27 -4 -93 -17 -145 -29 -52 -12 -116 -26 -142 -31 -26
-5 -60 -16 -75 -24 -15 -8 -33 -15 -38 -15 -6 0 -28 -9 -50 -20 -22 -11 -45
-20 -52 -20 -7 0 -13 -5 -13 -11 0 -6 8 -8 18 -5 9 2 53 10 97 17 70 10 315
82 370 109 11 5 31 12 45 14 14 2 36 9 50 14 20 9 21 11 5 10 -11 0 -42 -4
-70 -9z"/>
<path d="M2170 2920 c0 -5 5 -10 11 -10 5 0 7 5 4 10 -3 6 -8 10 -11 10 -2 0
-4 -4 -4 -10z"/>
<path d="M2785 2739 c-147 -20 -149 -24 -25 -38 89 -10 162 -10 319 -2 112 6
242 11 289 11 47 0 83 2 81 4 -3 3 -63 6 -134 7 -72 1 -143 6 -160 10 -48 11
-304 17 -370 8z"/>
<path d="M2660 2641 c0 -6 6 -11 14 -11 7 0 27 -7 42 -15 16 -8 37 -15 47 -15
9 0 17 -4 17 -8 0 -9 125 -42 254 -67 44 -9 82 -18 86 -20 3 -2 25 -5 48 -6
23 -2 42 -7 42 -11 0 -4 8 -8 17 -8 41 0 -14 23 -197 83 -107 35 -224 67 -260
71 -36 4 -75 10 -87 13 -14 3 -23 1 -23 -6z"/>
<path d="M2124 2580 c-6 -6 -46 -25 -90 -43 -43 -18 -93 -42 -109 -53 -17 -11
-38 -24 -47 -27 -10 -4 -18 -11 -18 -17 0 -5 -5 -10 -11 -10 -6 0 -28 -13 -49
-30 -21 -16 -42 -30 -48 -30 -5 0 -20 -11 -33 -25 -13 -13 -30 -25 -37 -25
-14 0 -94 -51 -89 -56 5 -6 302 147 305 157 2 5 12 9 21 9 24 0 137 74 153
100 7 11 17 20 23 20 14 1 63 39 50 40 -6 0 -16 -5 -21 -10z"/>
<path d="M2134 2483 c-11 -10 -40 -34 -64 -53 -42 -33 -118 -109 -173 -175
-14 -16 -50 -57 -81 -90 -66 -71 -76 -100 -11 -35 24 25 62 58 85 75 24 17 38
35 35 43 -2 7 0 10 5 7 13 -8 130 97 173 156 9 13 29 39 43 57 28 34 20 43
-12 15z"/>
<path d="M2600 2495 c0 -4 14 -23 30 -42 17 -18 30 -39 30 -44 0 -6 7 -9 14
-6 10 4 13 1 10 -8 -3 -8 5 -24 19 -37 59 -56 86 -78 95 -78 6 0 12 -6 14 -14
3 -12 57 -61 167 -151 47 -39 23 -8 -61 77 -37 37 -65 68 -62 68 3 0 -7 12
-21 27 -14 15 -25 31 -25 36 0 4 -4 5 -10 2 -5 -3 -10 0 -10 7 0 20 -60 79
-72 72 -7 -4 -8 -2 -4 4 4 7 3 12 -2 12 -4 0 -17 8 -28 18 -30 28 -84 64 -84
57z"/>
<path d="M3258 2478 c6 -6 18 -8 28 -6 14 3 12 5 -9 10 -19 3 -25 2 -19 -4z"/>
<path d="M2209 2434 c-1 -5 -1 -12 0 -16 0 -5 -3 -7 -8 -5 -15 4 -131 -169
-131 -195 0 -9 -4 -19 -9 -23 -12 -7 -132 -247 -127 -252 3 -4 60 80 122 180
16 26 41 64 57 84 15 20 27 42 27 49 0 8 5 14 10 14 6 0 10 9 10 19 0 11 5 23
11 26 6 4 8 14 5 22 -3 8 -2 12 3 9 11 -7 23 22 14 36 -3 7 -1 8 5 4 12 -7 29
40 18 51 -3 4 -7 2 -7 -3z"/>
<path d="M2130 1808 c0 -19 2 -20 10 -8 13 19 13 30 0 30 -5 0 -10 -10 -10
-22z"/>
<path d="M2490 1641 c0 -5 7 -11 15 -15 8 -3 15 -1 15 3 0 5 -7 11 -15 15 -8
3 -15 1 -15 -3z"/>
<path d="M2290 1481 c0 -5 6 -13 13 -19 10 -8 13 -6 14 9 1 10 -5 19 -13 19
-8 0 -14 -4 -14 -9z"/>
<path d="M1390 1070 c0 -5 5 -10 11 -10 5 0 7 5 4 10 -3 6 -8 10 -11 10 -2 0
-4 -4 -4 -10z"/>
<path d="M2015 931 c-16 -11 -43 -33 -59 -50 -16 -17 -33 -31 -38 -31 -4 0 -8
-4 -8 -10 0 -23 40 -7 84 35 27 25 57 45 68 45 17 0 18 3 8 15 -16 19 -19 19
-55 -4z"/>
<path d="M2155 936 c-27 -19 -105 -94 -105 -101 0 -3 7 -5 16 -5 22 0 74 32
74 45 0 6 14 19 30 28 30 18 41 47 17 47 -7 0 -21 -6 -32 -14z"/>
<path d="M1570 920 c-14 -10 -21 -22 -17 -26 9 -9 77 25 77 38 0 14 -34 8 -60
-12z"/>
<path d="M1713 921 c-13 -11 -23 -22 -23 -26 0 -3 -12 -17 -27 -30 -16 -13
-25 -27 -20 -31 11 -11 58 18 68 42 4 12 17 25 28 29 10 3 25 12 31 20 19 23
-29 19 -57 -4z"/>
<path d="M1858 924 c-16 -8 -28 -19 -28 -25 0 -6 -11 -20 -25 -31 -27 -21 -33
-38 -12 -38 15 1 57 35 57 48 0 5 16 17 35 28 19 10 35 22 35 26 0 13 -33 8
-62 -8z"/>
<path d="M2220 909 c0 -5 5 -7 10 -4 6 3 10 8 10 11 0 2 -4 4 -10 4 -5 0 -10
-5 -10 -11z"/>
</g>
</svg>
